/* XPM */
static char *[] = {
/* width height ncolors chars_per_pixel */
"32 32 80 1",
/* colors */
"  c None",
". c #CCE6C8",
"X c #B3DAAC",
"o c #AFD8A8",
"O c #ADD6A6",
"+ c #ABD6A4",
"@ c #A7D4A0",
"# c #B5B151",
"$ c #B3AF4F",
"% c #DBD9AB",
"& c #BFBC6B",
"* c #CAE5C5",
"= c #D4D29A",
"- c #C4CAF4",
"; c #A5D39D",
": c #A3D19B",
"> c #A1D199",
", c #C5C277",
"< c #C8CDF4",
"1 c #AFAC4D",
"2 c #C9C681",
"3 c #BCC2F2",
"4 c #DCDAAE",
"5 c #B6DCB0",
"6 c #B4DAAE",
"7 c #FF1515",
"8 c #9BCE92",
"9 c #CECC8C",
"0 c #B3AF4D",
"q c #FF0101",
"w c #6AB65E",
"e c #D9D7A7",
"r c #D5EBD1",
"t c #B8B558",
"y c #D3E9CF",
"u c #D1E9CD",
"i c #CDE7C9",
"p c #B2D9AB",
"a c #AED7A7",
"s c #2738BB",
"d c #A8D5A1",
"f c #A6D39F",
"g c #D8D6A2",
"h c #BCB962",
"j c #CFCD8F",
"k c #B4B050",
"l c #5EAF51",
"z c #CBE6C6",
"x c #D5D39B",
"c c #C7E4C2",
"v c #D3D199",
"b c #C5E2C0",
"n c #B9B65B",
"m c #BFE0BA",
"M c #2B3FD5",
"N c #CCCA88",
"B c #A4D29C",
"V c #2739BD",
"C c #2231A4",
"Z c #BDBA65",
"A c #D2D094",
"S c #B6B354",
"D c #CAC782",
"F c #DDDBAF",
"G c #BDDFB7",
"H c #C1BE6F",
"J c #D6D49E",
"K c #B5DBAF",
"L c #CFCD8D",
"P c #CDCB8B",
"I c #F8F9FE",
"U c #B4BBF0",
"Y c #69B55D",
"T c #D3D197",
"R c #FF1111",
"E c #D4EAD0",
"W c #B7B457",
"Q c #CEE8CA",
"! c #CCCA86",
"~ c None",
/* pixels */
"                                ",
"                                ",
"                                ",
"                                ",
"                                ",
"         v&$2                   ",
"         eAZ#P                  ",
"         FgjttL00               ",
"         gFJ9Sh00               ",
"      qqqve4xDWNT00             ",
"     qqqq>BXp:8>>>>             ",
"     qqqql>fXf>>>>>>>           ",
"      qR7wYEzErrrrr>>>          ",
"       offd*osMMM<-o5>>>>       ",
"      ri...uOVMMUM<cd5b@BB>     ",
"      >rrrryO3CMIUMrc@;5Errrr   ",
"      ri...*O3CMMMMrya:6yrrrr   ",
"      >offfd+VMUMM<rG@ma>>>     ",
"       >>>>*osCCC<<yX>>>>       ",
"      qqqllriQErrrr>>>          ",
"     qqqql>>+Kf>>>>>>           ",
"     qqqq>>@5+>>>>>             ",
"      qqqTJ4eT!AT00             ",
"         x4ev,010               ",
"         %%=20H00               ",
"         %xNkZ                  ",
"         x9tn                   ",
"                                ",
"                                ",
"                                ",
"                                ",
"                                "
};
