#define itemEmergencyShield_width 16
#define itemEmergencyShield_height 16
static unsigned char itemEmergencyShield_bits[] = {
   0x00, 0x00, 0xa0, 0x0a, 0x10, 0x10, 0x08, 0x21, 0x04, 0x41, 0x80, 0x02,
   0x84, 0x42, 0x40, 0x04, 0x44, 0x44, 0x20, 0x08, 0xe4, 0x4f, 0x08, 0x20,
   0x10, 0x10, 0xa0, 0x0a, 0x00, 0x00, 0x00, 0x00};
