#define itemEmergencyThrust_width 16
#define itemEmergencyThrust_height 16
static unsigned char itemEmergencyThrust_bits[] = {
   0x00, 0xc0, 0x00, 0xb0, 0x00, 0x4c, 0x00, 0x43, 0x24, 0x22, 0x00, 0x25,
   0x50, 0x1b, 0x84, 0x15, 0x49, 0x03, 0xc0, 0x08, 0x22, 0x02, 0x88, 0x00,
   0x22, 0x01, 0x08, 0x08, 0x42, 0x02, 0x10, 0x00};
