#define itemMirror_width 16
#define itemMirror_height 16
static unsigned char itemMirror_bits[] = {
   0x00, 0x00, 0x00, 0x00, 0xe0, 0x07, 0x10, 0x08, 0x08, 0x11, 0x08, 0x11,
   0xc8, 0x17, 0x08, 0x11, 0x08, 0x11, 0x08, 0x10, 0x08, 0x10, 0x08, 0x10,
   0x10, 0x08, 0xe0, 0x07, 0x00, 0x00, 0x00, 0x00};
