#define itemHyperJump_width 16
#define itemHyperJump_height 16
static unsigned char itemHyperJump_bits[] = {
  0x00, 0x01, 0x8c, 0x63, 0x0c, 0x61, 0x10, 0x11, 0x20, 0x09, 0x40, 0x05,
  0x04, 0x40, 0x7e, 0xfc, 0x04, 0x40, 0x40, 0x05, 0x20, 0x09, 0x10, 0x11,
  0x0c, 0x61, 0x8c, 0x63, 0x00, 0x01, 0x00, 0x00, };
