#define itemPhasingDevice_width 16
#define itemPhasingDevice_height 16
static unsigned char itemPhasingDevice_bits[] = {
  0x00, 0x01, 0x00, 0x00, 0x00, 0x02, 0x00, 0x01, 0x80, 0x04, 0x40, 0x02,
  0x00, 0x01, 0x80, 0x04, 0x40, 0x02, 0x20, 0x09, 0x90, 0x04, 0x40, 0x12,
  0x20, 0x09, 0x90, 0x24, 0x48, 0x12, 0x24, 0x49, };
