#define itemArmor_width 16
#define itemArmor_height 16
static unsigned char itemArmor_bits[] = {
   0x00, 0x00, 0x00, 0x00, 0x00, 0x00, 0x80, 0x03, 0x00, 0x01, 0xc0, 0x06,
   0x80, 0x02, 0x60, 0x0c, 0x40, 0x04, 0x30, 0x18, 0xe0, 0x0f, 0xa0, 0x0a,
   0x00, 0x00, 0x00, 0x00, 0x00, 0x00, 0x00, 0x00};
