#define itemDeflector_width 16
#define itemDeflector_height 16
static unsigned char itemDeflector_bits[] = {
   0x80, 0x00, 0x80, 0x00, 0x04, 0x10, 0x08, 0x08, 0x80, 0x00, 0x80, 0x00,
   0xc0, 0x01, 0xc3, 0x61, 0xe0, 0x03, 0xe0, 0x03, 0xf0, 0x07, 0x00, 0x00,
   0x04, 0x10, 0x82, 0x20, 0x80, 0x00, 0x00, 0x00};
