#define itemAutopilot_width 16
#define itemAutopilot_height 16
static unsigned char itemAutopilot_bits[] = {
   0xc0, 0x07, 0x20, 0x08, 0xd0, 0x17, 0xe8, 0x2f, 0xf4, 0x5f, 0xba, 0xbb,
   0xba, 0xbb, 0x3a, 0xb8, 0xba, 0xbb, 0xba, 0xbb, 0xba, 0xbb, 0xf4, 0x5f,
   0xe8, 0x2f, 0xd0, 0x17, 0x20, 0x08, 0xc0, 0x07};
