#define itemTractorBeam_width 16
#define itemTractorBeam_height 16
static unsigned char itemTractorBeam_bits[] = {
   0x00, 0xfe, 0x00, 0x82, 0x00, 0x54, 0x00, 0x44, 0x00, 0x29, 0x40, 0x2a,
   0x10, 0x14, 0x88, 0x10, 0x08, 0x02, 0x3c, 0x00, 0x1c, 0x01, 0x3e, 0x00,
   0xbe, 0x00, 0x7f, 0x00, 0x7f, 0x00, 0x00, 0x00};
