#define revplay_width 32
#define revplay_height 32
static unsigned char revplay_bits[] = {
   0x00, 0x00, 0x00, 0x00, 0x00, 0x00, 0x00, 0x00, 0x00, 0x00, 0x00, 0x00,
   0x00, 0x00, 0xf8, 0x00, 0x00, 0x00, 0x7c, 0x00, 0x00, 0x00, 0x3e, 0x00,
   0x00, 0x00, 0x1f, 0x00, 0x00, 0x80, 0x0f, 0x00, 0x00, 0xc0, 0x07, 0x00,
   0x00, 0xe0, 0x03, 0x00, 0x00, 0xf0, 0x01, 0x00, 0x00, 0xf8, 0x00, 0x00,
   0x00, 0x7c, 0x00, 0x00, 0x00, 0x3e, 0x00, 0x00, 0x00, 0x1f, 0x00, 0x00,
   0x80, 0x0f, 0x00, 0x00, 0x80, 0x0f, 0x00, 0x00, 0x00, 0x1f, 0x00, 0x00,
   0x00, 0x3e, 0x00, 0x00, 0x00, 0x7c, 0x00, 0x00, 0x00, 0xf8, 0x00, 0x00,
   0x00, 0xf0, 0x01, 0x00, 0x00, 0xe0, 0x03, 0x00, 0x00, 0xc0, 0x07, 0x00,
   0x00, 0x80, 0x0f, 0x00, 0x00, 0x00, 0x1f, 0x00, 0x00, 0x00, 0x3e, 0x00,
   0x00, 0x00, 0x7c, 0x00, 0x00, 0x00, 0xf8, 0x00, 0x00, 0x00, 0x00, 0x00,
   0x00, 0x00, 0x00, 0x00, 0x00, 0x00, 0x00, 0x00};
