/* XPM */
static char * ball_xpm[] = {
"20 20 7 1",
" 	c #000000000000",
".	c #FFFFBBBB1111",
"X	c #CCCC44440000",
"o	c #DDDD88880000",
"O	c #5F5F5F5F5F5F",
"+	c #777700000000",
"@	c #FFFFFFFFFFFF",
"       ......       ",
"     ..XXXXXX..     ",
"    .XXXXXXXXXX.    ",
"   .XXXoooooXXXX.   ",
"  .XXoooooooXXXXX.  ",
" .XXooo..ooooXXXXO. ",
" .Xoo.....oooXXXX+. ",
".XXo.@@@..oooXXXX++.",
".XXo.@@@.ooooXXXX++.",
".XXo.....oooXXXX+X+.",
".XXooooooooXXXXX+++.",
".XXXooooooXXXXXX+++.",
".XXXXXXXXXXXXXX+X++.",
" .XXXXXXXXXXXX++++. ",
" .XXXXXXXXXXX+X+++. ",
"  .XXXXXXXX++++++.  ",
"   .XXXXX+++++++.   ",
"    .+X++++X+X+.    ",
"     ..+XX+++..     ",
"       ......       "};
